<svg xmlns="http://www.w3.org/2000/svg" fill-rule="evenodd" viewBox="0 0 100 100">
    <path d="M88.6 25.1V12.9c0-.8-.7-1.5-1.5-1.5H50.5V4.1c0-.8-.7-1.5-1.5-1.5s-1.5.7-1.5 1.5v7.3H11c-.8 0-1.5.7-1.5 1.5V63c0 .8.7 1.5 1.5 1.5h23.2l-7.7 32.3c-.2.8.3 1.6 1.1 1.8h.4c.7 0 1.3-.5 1.5-1.1l7.9-33h10.3v24.2c0 .8.7 1.5 1.5 1.5s1.5-.7 1.5-1.5V64.5h10l8.2 33c.2.7.8 1.1 1.5 1.1h.4c.8-.2 1.3-1 1.1-1.8l-8-32.3h23.4c.8 0 1.5-.7 1.5-1.5 0 0-.2-37.4-.2-37.9zm-3-10.7v10.2H12.5V14.4h73.1zM12.5 61.5V27.6h73.1v33.9H12.5z"/>
</svg>
